<svg width="48" height="48" viewBox="0 0 48 48" fill="none" xmlns="http://www.w3.org/2000/svg">
<path d="M38.5613 28.0613L25.0613 41.5612C24.9219 41.7007 24.7565 41.8114 24.5744 41.8868C24.3923 41.9623 24.1971 42.0012 24 42.0012C23.8029 42.0012 23.6077 41.9623 23.4256 41.8868C23.2435 41.8114 23.0781 41.7007 22.9388 41.5612L9.43875 28.0613C9.15729 27.7798 8.99917 27.398 8.99917 27C8.99917 26.602 9.15729 26.2202 9.43875 25.9387C9.72021 25.6573 10.102 25.4992 10.5 25.4992C10.898 25.4992 11.2798 25.6573 11.5613 25.9387L22.5 36.8794V7.5C22.5 7.10218 22.658 6.72064 22.9393 6.43934C23.2206 6.15804 23.6022 6 24 6C24.3978 6 24.7794 6.15804 25.0607 6.43934C25.342 6.72064 25.5 7.10218 25.5 7.5V36.8794L36.4388 25.9387C36.7202 25.6573 37.102 25.4992 37.5 25.4992C37.8981 25.4992 38.2798 25.6573 38.5613 25.9387C38.8427 26.2202 39.0008 26.602 39.0008 27C39.0008 27.398 38.8427 27.7798 38.5613 28.0613Z" fill="white"/>
</svg>
