<svg width="96" height="96" viewBox="0 0 96 96" fill="none" xmlns="http://www.w3.org/2000/svg">
<path d="M25.9191 35.3063L10.6866 48.0001L25.9191 60.6938C26.2305 60.9431 26.4891 61.252 26.6797 61.6025C26.8703 61.9529 26.9891 62.3378 27.0291 62.7347C27.0692 63.1316 27.0296 63.5325 26.9129 63.914C26.7961 64.2954 26.6044 64.6497 26.3491 64.9562C26.0937 65.2627 25.7798 65.5152 25.4257 65.6989C25.0716 65.8826 24.6844 65.9938 24.2868 66.026C23.8892 66.0583 23.4892 66.0109 23.1101 65.8867C22.731 65.7625 22.3805 65.5639 22.0791 65.3026L4.0791 50.3026C3.74135 50.0211 3.46961 49.6687 3.28314 49.2705C3.09666 48.8723 3 48.4379 3 47.9982C3 47.5585 3.09666 47.1242 3.28314 46.726C3.46961 46.3278 3.74135 45.9754 4.0791 45.6938L22.0791 30.6938C22.6908 30.1846 23.4796 29.9393 24.2722 30.0117C25.0648 30.0841 25.7961 30.4684 26.3053 31.0801C26.8146 31.6918 27.0599 32.4806 26.9875 33.2732C26.9151 34.0658 26.5308 34.7971 25.9191 35.3063ZM91.9191 45.6938L73.9191 30.6938C73.6162 30.4417 73.2667 30.2517 72.8904 30.1346C72.5141 30.0176 72.1184 29.9758 71.726 30.0117C71.3335 30.0476 70.952 30.1604 70.6031 30.3437C70.2543 30.527 69.945 30.7772 69.6928 31.0801C69.1836 31.6918 68.9382 32.4806 69.0107 33.2732C69.0831 34.0658 69.4674 34.7971 70.0791 35.3063L85.3116 48.0001L70.0791 60.6938C69.7677 60.9431 69.5091 61.252 69.3185 61.6025C69.1279 61.9529 69.0091 62.3378 68.9691 62.7347C68.929 63.1316 68.9686 63.5325 69.0853 63.914C69.2021 64.2954 69.3938 64.6497 69.6491 64.9562C69.9045 65.2627 70.2184 65.5152 70.5725 65.6989C70.9266 65.8826 71.3138 65.9938 71.7114 66.026C72.109 66.0583 72.509 66.0109 72.8881 65.8867C73.2672 65.7625 73.6177 65.5639 73.9191 65.3026L91.9191 50.3026C92.2568 50.0211 92.5286 49.6687 92.7151 49.2705C92.9015 48.8723 92.9982 48.4379 92.9982 47.9982C92.9982 47.5585 92.9015 47.1242 92.7151 46.726C92.5286 46.3278 92.2568 45.9754 91.9191 45.6938ZM61.0228 12.1801C60.6525 12.0456 60.2593 11.9855 59.8657 12.003C59.4722 12.0205 59.0859 12.1153 58.7289 12.2821C58.372 12.4489 58.0514 12.6844 57.7855 12.9751C57.5196 13.2658 57.3135 13.606 57.1791 13.9763L33.1791 79.9763C33.0441 80.3469 32.9834 80.7404 33.0007 81.1344C33.0179 81.5285 33.1126 81.9152 33.2794 82.2726C33.4463 82.6299 33.6819 82.9509 33.9729 83.217C34.2639 83.4832 34.6046 83.6894 34.9753 83.8238C35.304 83.9407 35.6503 84.0003 35.9991 84.0001C36.6152 84.0001 37.2163 83.8104 37.7209 83.4569C38.2254 83.1033 38.6089 82.603 38.8191 82.0238L62.8191 16.0238C62.9535 15.6535 63.0137 15.2603 62.9962 14.8668C62.9787 14.4732 62.8839 14.0869 62.7171 13.7299C62.5503 13.373 62.3148 13.0524 62.0241 12.7865C61.7334 12.5206 61.3932 12.3145 61.0228 12.1801Z" fill="white"/>
</svg>
