<svg width="96" height="96" viewBox="0 0 96 96" fill="none" xmlns="http://www.w3.org/2000/svg">
<path d="M65.9989 42H56.9989C56.2033 42 55.4402 41.6839 54.8776 41.1213C54.315 40.5587 53.9989 39.7956 53.9989 39C53.9989 38.2044 54.315 37.4413 54.8776 36.8787C55.4402 36.3161 56.2033 36 56.9989 36H65.9989C66.7946 36 67.5576 36.3161 68.1202 36.8787C68.6828 37.4413 68.9989 38.2044 68.9989 39C68.9989 39.7956 68.6828 40.5587 68.1202 41.1213C67.5576 41.6839 66.7946 42 65.9989 42ZM38.9989 36H35.9989V33C35.9989 32.2044 35.6828 31.4413 35.1202 30.8787C34.5576 30.3161 33.7946 30 32.9989 30C32.2033 30 31.4402 30.3161 30.8776 30.8787C30.315 31.4413 29.9989 32.2044 29.9989 33V36H26.9989C26.2033 36 25.4402 36.3161 24.8776 36.8787C24.315 37.4413 23.9989 38.2044 23.9989 39C23.9989 39.7956 24.315 40.5587 24.8776 41.1213C25.4402 41.6839 26.2033 42 26.9989 42H29.9989V45C29.9989 45.7956 30.315 46.5587 30.8776 47.1213C31.4402 47.6839 32.2033 48 32.9989 48C33.7946 48 34.5576 47.6839 35.1202 47.1213C35.6828 46.5587 35.9989 45.7956 35.9989 45V42H38.9989C39.7946 42 40.5576 41.6839 41.1202 41.1213C41.6828 40.5587 41.9989 39.7956 41.9989 39C41.9989 38.2044 41.6828 37.4413 41.1202 36.8787C40.5576 36.3161 39.7946 36 38.9989 36ZM90.5539 75.2437C89.4233 76.8583 87.9528 78.2057 86.2458 79.1912C84.5388 80.1768 82.6367 80.7766 80.6732 80.9485C78.7096 81.1204 76.7322 80.8603 74.8799 80.1863C73.0276 79.5124 71.3454 78.441 69.9514 77.0475C69.9064 77.0025 69.8614 76.9575 69.8202 76.9087L54.9289 60H41.0539L26.1777 76.9087L26.0464 77.0475C23.5122 79.5763 20.079 80.9975 16.4989 81C14.5281 80.9993 12.5813 80.567 10.7953 79.7336C9.0093 78.9002 7.42746 77.6859 6.16086 76.1759C4.89427 74.6659 3.97366 72.897 3.46368 70.9932C2.95371 69.0895 2.86675 67.0972 3.20891 65.1562C3.20711 65.1388 3.20711 65.1212 3.20891 65.1038L9.34766 33.57C10.2613 28.369 12.9786 23.6564 17.0222 20.2602C21.0659 16.864 26.177 15.0015 31.4577 15H64.4989C69.7636 15.0084 74.8591 16.8602 78.9007 20.234C82.9424 23.6077 85.6749 28.2903 86.6239 33.4688C86.6239 33.4912 86.6239 33.5138 86.6239 33.5363L92.7627 65.1C92.7645 65.1175 92.7645 65.135 92.7627 65.1525C93.0804 66.897 93.0487 68.6873 92.6696 70.4195C92.2905 72.1517 91.5713 73.7914 90.5539 75.2437ZM64.4989 54C68.875 54 73.0718 52.2616 76.1662 49.1673C79.2605 46.0729 80.9989 41.8761 80.9989 37.5C80.9989 33.1239 79.2605 28.9271 76.1662 25.8327C73.0718 22.7384 68.875 21 64.4989 21H31.4577C27.5837 21.0035 23.8351 22.373 20.8713 24.8676C17.9075 27.3623 15.9184 30.8222 15.2539 34.6388V34.6875L9.11141 66.2212C8.83991 67.7846 9.07122 69.3938 9.77208 70.8173C10.4729 72.2409 11.6072 73.4055 13.0118 74.1436C14.4164 74.8818 16.019 75.1554 17.5889 74.9252C19.1589 74.695 20.6154 73.9728 21.7489 72.8625L37.4689 55.0163C37.7504 54.6969 38.0966 54.4412 38.4845 54.2659C38.8725 54.0907 39.2932 54.0001 39.7189 54H64.4989ZM86.8864 66.2212L83.6089 49.3462C81.5932 52.6012 78.7801 55.288 75.4361 57.1523C72.092 59.0166 68.3275 59.9968 64.4989 60H62.9239L74.2489 72.8662C75.1028 73.6968 76.1414 74.313 77.2796 74.6644C78.4177 75.0157 79.623 75.0922 80.7964 74.8875C82.7512 74.5425 84.4895 73.4365 85.6304 71.8121C86.7712 70.1876 87.2216 68.1771 86.8827 66.2212H86.8864Z" fill="white"/>
</svg>
